#!OML:ASF H:\ManfredETheater\Project 1\Capture day 1\Session 1\subject.ASF
:FULLY-SPECIFIED
:DEGREES
289
root -7.05648 9.43388 -0.0245083 50.145 79.131 42.3748
lowerback 60.9143 -12.7812 0.403615
upperback 13.4208 -11.1798 -1.53091
thorax -6.31143 -3.76242 2.78162
lowerneck 9.86858 -20.373 -16.6831
upperneck -12.3823 -28.2474 23.9528
head 0.690356 -15.0353 8.95185
rclavicle 5.88403e-014 5.32743e-014
rhumerus -26.3726 -1.92456 -72.1756
rradius 94.327
rwrist -20.0587
rhand -25.1944 -10.1455
rfingers 7.12502
rthumb 1.32386 -40.1211
lclavicle 5.88403e-014 5.32743e-014
lhumerus -22.0144 10.9909 30.3137
lradius 97.475
lwrist 8.97525
lhand -17.6704 0.203734
lfingers 7.12502
lthumb 8.58842 30.0091
rfemur -103.079 -55.7661 22.0902
rtibia 132.708
rfoot -33.9655 0.0773885
rtoes -33.255
lfemur -91.3159 36.0243 -2.31425
ltibia 121.976
lfoot -17.012 -26.5424
ltoes -15.0164
290
root -7.06239 9.4569 0.07541 49.9271 79.4774 42.3713
lowerback 60.9997 -12.8471 0.544222
upperback 13.423 -11.147 -1.48884
thorax -6.3136 -3.74157 2.75553
lowerneck 9.90426 -20.3724 -16.8019
upperneck -11.9766 -28.3006 23.7225
head 0.788985 -15.0355 8.87107
rclavicle 3.81667e-014 -2.3059e-014
rhumerus -26.8495 -1.89654 -72.4233
rradius 94.1401
rwrist -20.1272
rhand -24.9602 -9.95207
rfingers 7.12502
rthumb 1.55001 -39.9262
lclavicle 3.81667e-014 -2.3059e-014
lhumerus -22.1264 10.8607 30.5229
lradius 98.3212
lwrist 8.67049
lhand -17.2399 0.22075
lfingers 7.12502
lthumb 9.00383 30.0086
rfemur -103.357 -56.1621 23.1532
rtibia 133.111
rfoot -33.6064 0.267347
rtoes -33.5431
lfemur -92.7332 36.3249 -4.4447
ltibia 123.425
lfoot -17.6887 -26.9585
ltoes -15.0458
291
root -7.06766 9.47719 0.173589 48.8896 79.9213 41.5596
lowerback 61.1438 -12.8831 0.715705
upperback 13.4076 -11.0522 -1.38252
thorax -6.32745 -3.69821 2.76164
lowerneck 9.92143 -20.3519 -16.9232
upperneck -11.5702 -28.3232 23.4746
head 0.882504 -15.0189 8.78901
rclavicle -8.42847e-014 1.63401e-013
rhumerus -27.2779 -1.89543 -72.6394
rradius 93.9457
rwrist -20.1806
rhand -24.7698 -9.77345
rfingers 7.12502
rthumb 1.73394 -39.7461
lclavicle -8.42847e-014 1.63401e-013
lhumerus -22.2261 10.7163 30.7465
lradius 99.1123
lwrist 8.20879
lhand -16.8767 0.120363
lfingers 7.12502
lthumb 9.35427 29.8928
rfemur -103.489 -56.4964 24.1546
rtibia 133.515
rfoot -33.1434 0.646134
rtoes -34.0571
lfemur -94.1201 36.6833 -6.62446
ltibia 124.946
lfoot -18.4508 -27.5269
ltoes -15.7038
292
root -7.07243 9.49447 0.270766 46.9267 80.4426 39.819
lowerback 61.3262 -12.8806 0.901977
upperback 13.3805 -10.8973 -1.21558
thorax -6.3454 -3.63436 2.8031
lowerneck 9.92295 -20.3108 -17.0441
upperneck -11.1782 -28.313 23.2324
head 0.969372 -14.9866 8.71313
rclavicle -2.38542e-014 4.05521e-014
rhumerus -27.6427 -1.91652 -72.8279
rradius 93.7433
rwrist -20.2606
rhand -24.6072 -9.61886
rfingers 7.12502
rthumb 1.8909 -39.5902
lclavicle -2.38542e-014 4.05521e-014
lhumerus -22.3365 10.5686 30.9588
lradius 99.857
lwrist 7.60849
lhand -16.5757 -0.0748743
lfingers 7.12502
lthumb 9.64474 29.6843
rfemur -103.512 -56.7657 25.0947
rtibia 133.921
rfoot -32.5499 1.28086
rtoes -34.7143
lfemur -95.4753 37.0977 -8.851
ltibia 126.502
lfoot -19.2045 -28.1243
ltoes -16.75
293
root -7.07672 9.50823 0.367779 43.869 81.0171 36.9799
lowerback 61.5479 -12.8265 1.08419
upperback 13.3436 -10.6773 -0.986096
thorax -6.36411 -3.5487 2.88779
lowerneck 9.91087 -20.2528 -17.1525
upperneck -10.8127 -28.273 23.0064
head 1.04647 -14.9416 8.64551
rclavicle -1.90833e-014 -9.14409e-015
rhumerus -27.9386 -1.95389 -72.9902
rradius 93.5283
rwrist -20.3595
rhand -24.4799 -9.50578
rfingers 7.12502
rthumb 2.01389 -39.476
lclavicle -1.90833e-014 -9.14409e-015
lhumerus -22.4602 10.4216 31.1534
lradius 100.559
lwrist 6.91076
lhand -16.3329 -0.333345
lfingers 7.12502
lthumb 9.87903 29.4149
rfemur -103.445 -56.9807 25.969
rtibia 134.332
rfoot -31.7946 2.25631
rtoes -35.3999
lfemur -96.7673 37.5733 -11.0936
ltibia 128.05
lfoot -19.901 -28.7455
ltoes -17.9857
294
root -7.08055 9.51781 0.465267 39.5605 81.6025 32.8838
lowerback 61.7936 -12.7106 1.24355
upperback 13.304 -10.3936 -0.699209
thorax -6.37612 -3.44231 3.01816
lowerneck 9.89149 -20.1822 -17.241
upperneck -10.4841 -28.2084 22.8078
head 1.11161 -14.8878 8.58899
rclavicle -4.92986e-014 1.0297e-013
rhumerus -28.1668 -2.00648 -73.1292
rradius 93.3066
rwrist -20.4888
rhand -24.3829 -9.4518
rfingers 7.12502
rthumb 2.10756 -39.4211
lclavicle -4.92986e-014 1.0297e-013
lhumerus -22.6033 10.2721 31.3107
lradius 101.237
lwrist 6.17859
lhand -16.1321 -0.614449
lfingers 7.12502
lthumb 10.0727 29.1245
rfemur -103.352 -57.1581 26.8058
rtibia 134.754
rfoot -30.8618 3.53163
rtoes -36.2285
lfemur -97.9508 38.0951 -13.3025
ltibia 129.542
lfoot -20.5004 -29.4594
ltoes -18.7733
295
root -7.08414 9.52338 0.564393 33.6895 82.1298 27.224
lowerback 62.062 -12.5078 1.35178
upperback 13.2678 -10.0367 -0.364014
thorax -6.37664 -3.31143 3.19206
lowerneck 9.86725 -20.1019 -17.3093
upperneck -10.1894 -28.1241 22.6433
head 1.16728 -14.8281 8.54441
rclavicle 4.6118e-014 -9.38264e-014
rhumerus -28.3344 -2.06359 -73.2523
rradius 93.0791
rwrist -20.6411
rhand -24.3257 -9.46366
rfingers 7.12502
rthumb 2.16282 -39.4324
lclavicle 4.6118e-014 -9.38264e-014
lhumerus -22.766 10.1312 31.4167
lradius 101.898
lwrist 5.46978
lhand -15.9435 -0.893356
lfingers 7.12502
lthumb 10.2546 28.8367
rfemur -103.225 -57.2535 27.5667
rtibia 135.18
rfoot -29.7136 5.15672
rtoes -37.1139
lfemur -98.9524 38.7062 -15.3852
ltibia 130.929
lfoot -20.9308 -30.3643
ltoes -18.6932
296
root -7.0875 9.52463 0.665388 26.084 82.5369 19.8294
lowerback 62.341 -12.216 1.41289
upperback 13.2392 -9.60505 0.0135568
thorax -6.3648 -3.15501 3.40102
lowerneck 9.83905 -20.0168 -17.351
upperneck -9.9225 -28.0272 22.5037
head 1.21389 -14.7653 8.50735
rclavicle 6.52014e-014 -6.83819e-014
rhumerus -28.455 -2.12001 -73.356
rradius 92.8513
rwrist -20.8137
rhand -24.3073 -9.53367
rfingers 7.12502
rthumb 2.18057 -39.5023
lclavicle 6.52014e-014 -6.83819e-014
lhumerus -22.94 9.98831 31.4607
lradius 102.554
lwrist 4.84434
lhand -15.7421 -1.14355
lfingers 7.12502
lthumb 10.4489 28.5768
rfemur -103.074 -57.2642 28.2406
rtibia 135.594
rfoot -28.3177 7.21355
rtoes -37.8171
lfemur -99.7345 39.4425 -17.2328
ltibia 132.172
lfoot -21.4728 -30.7204
ltoes -18.44
297
root -7.09073 9.52225 0.768159 16.9662 82.7489 10.9302
lowerback 62.6213 -11.8412 1.42638
upperback 13.2218 -9.10873 0.420747
thorax -6.34066 -2.97634 3.63593
lowerneck 9.80259 -19.9297 -17.366
upperneck -9.66875 -27.9221 22.376
head 1.25495 -14.7003 8.4722
rclavicle 9.54166e-015 2.54444e-014
rhumerus -28.5409 -2.16834 -73.4416
rradius 92.6252
rwrist -20.9879
rhand -24.3171 -9.65325
rfingers 7.12502
rthumb 2.17109 -39.6219
lclavicle 9.54166e-015 2.54444e-014
lhumerus -23.1156 9.85542 31.4467
lradius 103.19
lwrist 4.35033
lhand -15.5076 -1.3347
lfingers 7.12502
lthumb 10.6752 28.3741
rfemur -102.877 -57.1846 28.7692
rtibia 135.973
rfoot -26.6641 9.7514
rtoes -38.0674
lfemur -100.241 40.3309 -18.7205
ltibia 133.234
lfoot -21.974 -30.9399
ltoes -17.1506
298
root -7.09394 9.51676 0.871882 6.8619 82.7121 1.0594
lowerback 62.8968 -11.4009 1.41345
upperback 13.2162 -8.55635 0.850307
thorax -6.30793 -2.77768 3.88424
lowerneck 9.76482 -19.8429 -17.3562
upperneck -9.42533 -27.8135 22.251
head 1.28982 -14.6348 8.43673
rclavicle 5.40694e-014 -1.12512e-013
rhumerus -28.6016 -2.20816 -73.5053
rradius 92.399
rwrist -21.1415
rhand -24.3415 -9.80029
rfingers 7.12502
rthumb 2.1475 -39.7692
lclavicle 5.40694e-014 -1.12512e-013
lhumerus -23.2827 9.72728 31.3789
lradius 103.812
lwrist 4.01504
lhand -15.2213 -1.43071
lfingers 7.12502
lthumb 10.9513 28.2637
rfemur -102.581 -57.0012 29.1021
rtibia 136.28
rfoot -24.7684 12.7335
rtoes -37.6467
lfemur -100.423 41.3904 -19.6876
ltibia 134.078
lfoot -22.8428 -30.7195
ltoes -15.5194
299
root -7.09697 9.50799 0.975099 -3.31538 82.4091 -8.87069
lowerback 63.1481 -10.929 1.40207
upperback 13.2216 -7.97242 1.28948
thorax -6.2709 -2.56773 4.13086
lowerneck 9.7292 -19.756 -17.3295
upperneck -9.18356 -27.7026 22.1203
head 1.32036 -14.5686 8.39898
rclavicle 1.90833e-014 -9.14409e-015
rhumerus -28.6434 -2.23575 -73.5428
rradius 92.1696
rwrist -21.2615
rhand -24.3621 -9.94807
rfingers 7.12502
rthumb 2.12763 -39.9172
lclavicle 1.90833e-014 -9.14409e-015
lhumerus -23.4349 9.61093 31.2726
lradius 104.402
lwrist 3.83725
lhand -14.8969 -1.40687
lfingers 7.12502
lthumb 11.2642 28.2707
rfemur -102.164 -56.7391 29.2019
rtibia 136.485
rfoot -22.6706 15.981
rtoes -36.4189
lfemur -100.278 42.5992 -20.0236
ltibia 134.694
lfoot -24.0751 -30.2061
ltoes -13.5203
300
root -7.10006 9.4973 1.07643 -12.8485 81.8708 -18.1052
lowerback 63.4298 -10.4687 1.41602
upperback 13.2225 -7.38444 1.72738
thorax -6.24824 -2.35474 4.36695
lowerneck 9.69828 -19.6681 -17.2927
upperneck -8.93606 -27.59 21.9771
head 1.34834 -14.5012 8.35758
rclavicle 3.18055e-015 5.56597e-015
rhumerus -28.6687 -2.24844 -73.555
rradius 91.9346
rwrist -21.3376
rhand -24.355 -10.0631
rfingers 7.12502
rthumb 2.13446 -40.0322
lclavicle 3.18055e-015 5.56597e-015
lhumerus -23.5799 9.50522 31.1195
lradius 104.966
lwrist 3.82515
lhand -14.548 -1.25358
lfingers 7.12502
lthumb 11.6007 28.4053
rfemur -101.496 -56.4441 28.9953
rtibia 136.549
rfoot -20.5278 18.792
rtoes -34.6083
lfemur -99.7382 43.9122 -19.5821
ltibia 135.082
lfoot -25.6556 -29.5177
ltoes -11.5408
